<?xml version="1.0" encoding="UTF-8"?>
<svg version="1.1" xmlns="http://www.w3.org/2000/svg" width="500" height="500">
<path d="M0 0 C1.01037827 0.00222061 2.02075653 0.00444122 3.06175232 0.00672913 C4.77341331 0.00684242 4.77341331 0.00684242 6.51965332 0.00695801 C7.76129745 0.01211929 9.00294159 0.01728058 10.2822113 0.02259827 C12.17785072 0.02472069 12.17785072 0.02472069 14.11178589 0.02688599 C17.47705394 0.0315487 20.84225495 0.04053972 24.20750427 0.05158997 C27.63930175 0.06180606 31.07110614 0.06638403 34.50291443 0.07142639 C41.2405633 0.08248071 47.9781803 0.09923742 54.71580505 0.12025452 C54.71580505 1.11025452 54.71580505 2.10025452 54.71580505 3.12025452 C53.41643005 3.83181702 53.41643005 3.83181702 52.09080505 4.55775452 C46.96665155 7.68580071 44.82075351 13.73103794 42.71580505 19.12025452 C41.77119516 23.65565016 41.59228771 27.97266689 41.59555054 32.59934998 C41.5942689 33.69734828 41.5942689 33.69734828 41.59296137 34.81752837 C41.59132042 37.25879438 41.59680517 39.69999097 41.60227966 42.14125061 C41.60256186 43.89580789 41.60240317 45.65036528 41.60183716 47.40492249 C41.60155045 52.16062423 41.60742675 56.91630071 41.61441112 61.67199659 C41.62066571 66.64478903 41.62125012 71.61758205 41.62243652 76.59037781 C41.62554362 86.00374768 41.63374865 95.41710593 41.64378601 104.83047068 C41.65496642 115.54866308 41.66046246 126.26685604 41.66548145 136.98505282 C41.67593177 159.03012654 41.6935192 181.0751898 41.71580505 203.12025452 C43.32201348 201.19716384 44.92764265 199.27359455 46.53294373 197.3497467 C46.985382 196.80816925 47.43782028 196.2665918 47.90396881 195.70860291 C51.01541625 191.9785191 54.05213646 188.20858652 57.02830505 184.37025452 C61.02955038 179.2357085 65.09935916 174.16285525 69.21580505 169.12025452 C75.140601 161.85703888 80.94850584 154.508815 86.71580505 147.12025452 C93.0197192 139.04422981 99.39140358 131.03297939 105.86839294 123.09486389 C110.39110558 117.54294637 114.82388263 111.92476805 119.2353363 106.28431702 C122.0083402 102.74003505 124.82411193 99.23080133 127.6415863 95.72181702 C129.61797686 93.24295428 131.57521654 90.7502711 133.52830505 88.25306702 C138.03322734 82.49393341 142.59323504 76.78546329 147.21580505 71.12025452 C151.74332558 65.57101331 156.21666763 59.9852308 160.61985779 54.33680725 C162.95477071 51.34542507 165.31217711 48.37713303 167.71580505 45.44056702 C172.8240142 39.18724593 177.74982393 32.87230735 182.27830505 26.18275452 C182.88654114 25.29728943 182.88654114 25.29728943 183.50706482 24.39393616 C187.00092 19.11273413 189.89057192 13.78544929 189.46580505 7.30775452 C188.76767449 4.12496992 188.76767449 4.12496992 187.71580505 1.12025452 C188.71580505 0.12025452 188.71580505 0.12025452 190.46850586 0 C191.23017563 0.00222061 191.9918454 0.00444122 192.77659607 0.00672913 C193.63741287 0.00680466 194.49822968 0.00688019 195.38513184 0.00695801 C196.32054306 0.01211929 197.25595428 0.01728058 198.2197113 0.02259827 C199.17272629 0.02401321 200.12574127 0.02542816 201.1076355 0.02688599 C204.16455671 0.032503 207.22140582 0.04505836 210.27830505 0.05775452 C212.34536129 0.06276733 214.41241867 0.06733061 216.47947693 0.07142639 C221.55828093 0.08247795 226.63703075 0.09975397 231.71580505 0.12025452 C231.71580505 1.11025452 231.71580505 2.10025452 231.71580505 3.12025452 C230.71162537 3.57013733 229.70744568 4.02002014 228.6728363 4.48353577 C209.72142701 13.2730004 196.80780487 27.14593223 184.3759613 43.63978577 C181.43626379 47.52187968 178.36149016 51.28926658 175.27830505 55.05775452 C171.10389424 60.16600375 166.96935744 65.30025787 162.90330505 70.49525452 C162.44818542 71.07670227 161.9930658 71.65815002 161.52415466 72.25721741 C160.65198277 73.37170355 159.77983021 74.48620483 158.90769958 75.60072327 C154.30034646 81.47457945 149.5965961 87.27028378 144.88279724 93.05873108 C140.36800197 98.60344012 135.86421892 104.14933311 131.49705505 109.81166077 C123.99626921 119.533074 116.32559296 129.11065434 108.5634613 138.62416077 C108.07764587 139.22889221 107.59183044 139.83362366 107.09129333 140.4566803 C105.87740655 141.92480677 104.58110728 143.32394191 103.2743988 144.71009827 C101.49218667 147.02625172 101.49218667 147.02625172 101.57518005 149.85853577 C103.23586757 154.60741959 106.00525203 158.27263039 108.96580505 162.30775452 C110.25329058 164.10259104 111.53972511 165.89818188 112.82518005 167.69447327 C113.47809021 168.6011676 114.13100037 169.50786194 114.80369568 170.44203186 C117.67127252 174.45854334 120.44468411 178.53688091 123.21580505 182.62025452 C128.89357116 190.95338519 134.6658286 199.21794233 140.45799255 207.47181702 C144.57187175 213.33536012 148.64877704 219.22413983 152.71580505 225.12025452 C154.11356025 222.32474413 153.85077653 220.01664432 153.86106873 216.88905334 C153.86744858 215.57620865 153.87382843 214.26336395 153.88040161 212.91073608 C153.88193211 211.46625302 153.88304509 210.02176946 153.8837738 208.57728577 C153.88698955 207.09150155 153.89035386 205.60571764 153.89385986 204.11993408 C153.89986018 200.99348724 153.90169931 197.86706804 153.90110779 194.74061584 C153.9010072 190.77596781 153.9145472 186.81150306 153.93188 182.84689808 C153.94313339 179.76922837 153.94502281 176.69160073 153.94449806 173.61391258 C153.94566254 172.15540128 153.94999585 170.69688832 153.95783043 169.2383976 C154.30606653 148.69872843 154.30606653 148.69872843 146.71580505 130.12025452 C144.8139726 128.23184676 142.87375209 126.72616859 140.71580505 125.12025452 C140.71580505 124.46025452 140.71580505 123.80025452 140.71580505 123.12025452 C151.93999004 123.07349812 163.1641511 123.03816879 174.38841438 123.01663017 C179.60272333 123.00628226 184.81696468 122.99229185 190.03123474 122.96937561 C195.08226542 122.94732085 200.13323191 122.93561872 205.1843071 122.93050003 C207.09198387 122.92686181 208.99965795 122.91976179 210.90730667 122.9087944 C228.50834938 122.81181526 246.34351332 123.441718 263.59080505 127.24525452 C264.57218445 127.45843323 265.55356384 127.67161194 266.56468201 127.89125061 C297.44710224 134.91232746 323.94014954 148.16411285 346.71580505 170.12025452 C347.68066833 171.00777405 347.68066833 171.00777405 348.6650238 171.91322327 C365.69694454 187.99230928 376.48783199 210.40685846 382.52830505 232.74525452 C382.72327576 233.45979797 382.91824646 234.17434143 383.11912537 234.91053772 C386.24186905 247.24041853 387.08327228 259.75603793 387.02830505 272.43275452 C387.02557083 273.44198471 387.02557083 273.44198471 387.02278137 274.47160339 C386.85561885 311.27948385 372.99976143 344.33563167 347.71580505 371.12025452 C346.76447693 372.15085999 346.76447693 372.15085999 345.79393005 373.20228577 C315.33184208 405.1119523 267.29817472 418.08197493 224.44036102 419.17847061 C211.54027761 419.40985467 198.63503688 419.31722474 185.73374939 419.25758362 C180.75838439 419.2368281 175.78299808 419.22792753 170.80760193 419.21791077 C161.11028155 419.19669994 151.41305402 419.1627354 141.71580505 419.12025452 C141.71580505 418.13025452 141.71580505 417.14025452 141.71580505 416.12025452 C142.43768005 415.60462952 143.15955505 415.08900452 143.90330505 414.55775452 C149.32955829 409.85500171 152.38901736 402.53416668 152.91716003 395.40055847 C153.03924782 391.72652964 153.16066906 388.05270551 153.26268005 384.37806702 C153.28337303 383.66936588 153.30406601 382.96066475 153.32538605 382.23048782 C153.88756865 362.58508878 153.93838876 342.93353329 153.95603943 323.28138733 C153.96162655 317.97496953 153.9859554 312.66879525 154.01401138 307.36245537 C154.03260708 303.22574623 154.03784067 299.08909803 154.03937531 294.95235062 C154.04238499 292.99319684 154.050356 291.03404369 154.06356049 289.0749321 C154.08063413 286.35920866 154.07874322 283.64411542 154.07225037 280.92835999 C154.08146515 280.13575272 154.09067993 279.34314545 154.10017395 278.52651978 C154.05126656 271.98889268 152.32661446 266.84442124 148.2978363 261.57728577 C147.63014221 260.68940369 147.63014221 260.68940369 146.94895935 259.78358459 C146.48014343 259.17281067 146.01132751 258.56203674 145.52830505 257.93275452 C144.52890186 256.60092514 143.53152029 255.26757646 142.53611755 253.93275452 C141.80763611 252.95628967 141.80763611 252.95628967 141.06443787 251.96009827 C139.2629229 249.50241962 137.57503383 246.98015075 135.90330505 244.43275452 C132.33853405 239.00524456 128.63602326 233.68352453 124.90330505 228.37025452 C120.64426281 222.30694454 116.402035 216.23408643 112.21580505 210.12025452 C103.22322308 197.0003424 94.1659231 183.91606653 84.71580505 171.12025452 C80.75051439 172.44201807 79.81760998 174.32960499 77.34080505 177.68275452 C76.4483517 178.87441768 75.55371572 180.06444853 74.6572113 181.25306702 C74.18170837 181.88374084 73.70620544 182.51441467 73.21629333 183.16419983 C70.64191287 186.52019336 67.95845775 189.78607056 65.27830505 193.05775452 C61.06801858 198.21165106 56.8901237 203.38735577 52.77830505 208.62025452 C52.35428406 209.15900208 51.93026306 209.69774963 51.49339294 210.25282288 C50.68448157 211.28553995 49.88613354 212.3266478 49.10029602 213.37702942 C47.71580505 215.12025452 47.71580505 215.12025452 46.18127441 216.64096069 C40.21797452 223.08997591 40.87758646 230.49934337 40.98924255 238.75697327 C40.99028225 240.28381345 40.98923723 241.81065633 40.98622131 243.3374939 C40.98640013 246.53103355 41.00711293 249.72355693 41.04344177 252.91688538 C41.08862375 256.97384233 41.08993363 261.02930507 41.07640648 265.0864439 C41.06966034 268.23963265 41.08311332 271.39249222 41.10266495 274.54561806 C41.11026996 276.0392515 41.11270733 277.53292193 41.10949326 279.02657127 C41.10577914 289.35486792 41.36934693 301.1860973 48.15330505 309.62025452 C48.99893005 310.44525452 49.84455505 311.27025452 50.71580505 312.12025452 C51.65347579 313.07842079 52.59098155 314.03674856 53.52830505 314.99525452 C54.25018005 315.69650452 54.97205505 316.39775452 55.71580505 317.12025452 C52.63742711 318.1463805 50.5500621 318.24115671 47.32640076 318.23377991 C46.22548599 318.23370438 45.12457123 318.23362885 43.99029541 318.23355103 C42.80272141 318.22838974 41.6151474 318.22322845 40.3915863 318.21791077 C38.56677986 318.21578835 38.56677986 318.21578835 36.70510864 318.21362305 C32.81281595 318.20801764 28.92058041 318.19546418 25.02830505 318.18275452 C22.39223818 318.17774021 19.7561704 318.17317719 17.12010193 318.16908264 C10.65198341 318.15804645 4.18389832 318.14130301 -2.28419495 318.12025452 C-2.28419495 316.80025452 -2.28419495 315.48025452 -2.28419495 314.12025452 C-0.8437648 313.21579838 0.59901093 312.3147758 2.0556488 311.43666077 C7.44555697 307.16278064 9.54828829 299.62294145 10.71580505 293.12025452 C10.99414057 289.43548942 10.99455163 285.76538635 10.98323059 282.07138062 C10.99002726 280.433298 10.99002726 280.433298 10.99696124 278.76212281 C11.00959145 275.1136344 11.00798572 271.46529553 11.0063324 267.81678772 C11.01231853 265.19633798 11.01912428 262.57589 11.02668762 259.95544434 C11.04326469 253.58203801 11.04879569 247.20866869 11.04991238 240.83524261 C11.05086452 235.65104292 11.0549831 230.46685538 11.06131363 225.28265953 C11.07891789 210.56531456 11.0881539 195.84799869 11.08665268 181.13064311 C11.08657277 180.33806692 11.08649286 179.54549074 11.08641052 178.72889709 C11.08632876 177.93534638 11.086247 177.14179567 11.08616276 176.32419797 C11.08535033 163.47151738 11.10447922 150.61895412 11.13268726 137.76630745 C11.16146205 124.55048804 11.17522499 111.33472576 11.1734997 98.11887425 C11.17283733 90.7067759 11.17826206 83.29480051 11.1998558 75.88273048 C11.22004503 68.90836837 11.21934703 61.93426929 11.20482254 54.95989418 C11.20273608 52.40621562 11.20742553 49.85252075 11.21954346 47.29887009 C12.0471353 25.29897314 12.0471353 25.29897314 2.17674255 6.48744202 C1.69463318 6.03627014 1.2125238 5.58509827 0.71580505 5.12025452 C-0.45981995 3.91369202 -0.45981995 3.91369202 -1.65919495 2.68275452 C-2.19544495 2.16712952 -2.73169495 1.65150452 -3.28419495 1.12025452 C-2.28419495 0.12025452 -2.28419495 0.12025452 0 0 Z M182.84080505 144.55775452 C181.04106663 148.65715871 180.59161829 152.55455056 180.56863403 157.00230408 C180.56147873 157.95827484 180.55432343 158.91424561 180.54695129 159.89918518 C180.54426239 160.93619568 180.54157349 161.97320618 180.5388031 163.04164124 C180.5322319 164.14303436 180.52566071 165.24442749 180.51889038 166.37919617 C180.49919898 170.0194455 180.48750582 173.65965372 180.4775238 177.29994202 C180.47344828 178.5443317 180.46937275 179.78872139 180.46517372 181.07081985 C180.44647994 186.97561202 180.43190785 192.88039117 180.42356175 198.78520572 C180.41378663 205.58725316 180.38745024 212.38897543 180.34706086 219.19090831 C180.31321458 225.09461802 180.30141314 230.99824838 180.29735756 236.90205765 C180.29248596 239.40827265 180.28085579 241.91448403 180.26231956 244.42063522 C180.23798855 247.92738062 180.2388823 251.43327488 180.24583435 254.94007874 C180.23302429 255.97304077 180.22021423 257.00600281 180.20701599 258.07026672 C180.25222515 264.33103031 181.10938766 267.97165788 184.71580505 273.12025452 C185.17156921 273.83463684 185.62733337 274.54901917 186.09690857 275.28504944 C192.69639595 284.88794274 199.46302008 293.86746954 207.71580505 302.12025452 C208.4015863 302.80603577 209.08736755 303.49181702 209.79393005 304.19837952 C214.47038069 308.57067077 222.07333796 315.12025452 228.71580505 315.12025452 C228.38580505 315.78025452 228.05580505 316.44025452 227.71580505 317.12025452 C227.14173416 317.11803391 226.56766327 317.11581329 225.97619629 317.11352539 C220.02327596 317.09147195 214.07036715 317.07634768 208.11741638 317.06532288 C205.89312774 317.06028135 203.66884242 317.05344829 201.44456482 317.04481506 C198.25502197 317.03274153 195.06552276 317.02702456 191.8759613 317.02259827 C190.87492874 317.01743698 189.87389618 317.0122757 188.8425293 317.00695801 C187.92165024 317.00688248 187.00077118 317.00680695 186.05198669 317.00672913 C185.23702225 317.00450851 184.4220578 317.0022879 183.58239746 317 C181.70102649 316.91497206 181.70102649 316.91497206 180.71580505 318.12025452 C180.61093752 320.28630825 180.57723489 322.45582445 180.57054138 324.62440491 C180.56718277 325.3042041 180.56382416 325.9840033 180.56036377 326.68440247 C180.55081947 328.94559022 180.54890829 331.20670408 180.5478363 333.46791077 C180.54462382 335.03915437 180.54125976 336.61039766 180.53775024 338.18164062 C180.53174868 341.48467196 180.52991116 344.7876771 180.53050232 348.0907135 C180.53060348 352.3083005 180.51700442 356.52571737 180.49973011 360.7432642 C180.48856343 363.99393471 180.48658462 367.24456488 180.48711205 370.49525261 C180.48593691 372.04886392 180.48154148 373.60247644 180.47377968 375.1560688 C180.06696434 388.13961725 180.06696434 388.13961725 184.59080505 399.99525452 C188.49813259 403.90258205 191.46350618 404.35578895 197.01062012 404.42333984 C198.25300697 404.42219933 198.25300697 404.42219933 199.52049255 404.42103577 C200.38786545 404.42668045 201.25523834 404.43232513 202.14889526 404.43814087 C204.96304662 404.45017822 207.77665462 404.44390723 210.59080505 404.43275452 C211.54675568 404.43059937 212.5027063 404.42844421 213.48762512 404.42622375 C250.05994807 404.29309778 288.4477749 397.15113928 316.71580505 372.12025452 C317.6800238 371.2991217 318.64424255 370.47798889 319.63768005 369.63197327 C343.88748052 348.60284943 356.27454735 318.55699827 359.71580505 287.12025452 C359.99252634 282.38658896 360.05042633 277.67376096 360.02830505 272.93275452 C360.0233905 271.67044006 360.01847595 270.40812561 360.01341248 269.1075592 C359.88606523 258.87014684 359.02988334 249.09354128 356.71580505 239.12025452 C356.55483337 238.41578186 356.39386169 237.7113092 356.22801208 236.98548889 C348.84999037 206.05591468 329.28968266 178.47404445 302.34715271 161.48109436 C278.07974375 146.60297586 250.08245898 138.15056443 221.55174255 137.88197327 C220.71543304 137.87390152 219.87912354 137.86582977 219.01747131 137.85751343 C217.26459252 137.843793 215.51168836 137.83301804 213.7587738 137.8250885 C211.97646687 137.81350872 210.19419619 137.79296358 208.41209412 137.76356506 C205.81257509 137.72081296 203.2140697 137.70471844 200.61424255 137.69447327 C199.82552765 137.67696518 199.03681274 137.65945709 198.22419739 137.64141846 C191.79121456 137.66647083 186.92663625 139.24617396 182.84080505 144.55775452 Z " fill="#FEFEFE" transform="translate(89.28419494628906,48.87974548339844)"/>
</svg>
